<?xml version="1.0" encoding="UTF-8"?>
<svg xmlns="http://www.w3.org/2000/svg" width="1200" height="1200" viewBox="0 0 1200 1200" role="img" aria-label="Latte/ลาเต้">
  <defs>
    <radialGradient id="bgGlow" cx="50%" cy="40%" r="72%">
      <stop offset="0%" stop-color="#fffaf0"/>
      <stop offset="58%" stop-color="#f4eddb"/>
      <stop offset="100%" stop-color="#d8e9d7"/>
    </radialGradient>
    <linearGradient id="emeraldWash" x1="0%" y1="0%" x2="100%" y2="100%">
      <stop offset="0%" stop-color="#0b4a33" stop-opacity="0.14"/>
      <stop offset="100%" stop-color="#f8f3e7" stop-opacity="0.05"/>
    </linearGradient>
    <filter id="softShadow" x="-30%" y="-30%" width="160%" height="170%">
      <feDropShadow dx="0" dy="28" stdDeviation="26" flood-color="#183929" flood-opacity="0.18"/>
    </filter>
  </defs>
  <rect width="1200" height="1200" fill="url(#bgGlow)"/>
  <rect x="78" y="78" width="1044" height="1044" rx="76" fill="url(#emeraldWash)" stroke="#f8f1df" stroke-width="4"/>
  <circle cx="952" cy="234" r="170" fill="#ffffff" opacity="0.33"/>
  <circle cx="236" cy="946" r="210" fill="#0f5b3f" opacity="0.07"/>
  <g transform="translate(72 236) rotate(-25) scale(0.9)" opacity="0.28">
    <path d="M0 0 C56 -70 134 -58 180 -8 C116 0 64 26 0 0Z" fill="#2f7d55"/>
    <path d="M14 -2 C68 -18 116 -20 166 -10" fill="none" stroke="#d9f0df" stroke-width="7" stroke-linecap="round" opacity="0.42"/>
  </g>
  <g transform="translate(1030 920) rotate(150) scale(0.72)" opacity="0.28">
    <path d="M0 0 C56 -70 134 -58 180 -8 C116 0 64 26 0 0Z" fill="#2f7d55"/>
    <path d="M14 -2 C68 -18 116 -20 166 -10" fill="none" stroke="#d9f0df" stroke-width="7" stroke-linecap="round" opacity="0.42"/>
  </g>
  <g transform="translate(945 168) rotate(42) scale(0.48)" opacity="0.32">
    <path d="M0 0 C56 -70 134 -58 180 -8 C116 0 64 26 0 0Z" fill="#2c6a47"/>
    <path d="M14 -2 C68 -18 116 -20 166 -10" fill="none" stroke="#d9f0df" stroke-width="7" stroke-linecap="round" opacity="0.42"/>
  </g>
  <g filter="url(#softShadow)">
    <ellipse cx="600" cy="857" rx="245" ry="64" fill="#efe2c8"/>
    <path d="M405 495
      C429 743 483 811 600 815
      C717 811 771 743 795 495
      Z" fill="#fff6e4" stroke="#ded1ba" stroke-width="10"/>
    <path d="M787 553
      C915 559 921 713 803 719
      C867 673 869 597 787 585
      Z" fill="none" stroke="#f6efe1" stroke-width="28" stroke-linecap="round"/>
    <ellipse cx="600" cy="495" rx="195" ry="92" fill="#f6ead7" stroke="#fdf7eb" stroke-width="18"/>
    <ellipse cx="600" cy="503" rx="152.1" ry="58" fill="#b98555" opacity="0.94"/>
  </g><g opacity="0.96">
    <path d="M480 505 C530 442 666 442 722 505 C658 532 542 532 480 505Z" fill="#f6ead7" opacity="0.94"/>
    <path d="M535 497 C568 468 635 466 670 498" fill="none" stroke="#fff9ec" stroke-width="13" stroke-linecap="round"/>
    <path d="M560 522 C596 505 630 506 656 522" fill="none" stroke="#8d5c38" stroke-width="8" stroke-linecap="round" opacity="0.46"/>
  </g>
    <path d="M500 508 C548 534 650 534 702 508" fill="none" stroke="#c27a46" stroke-width="9" stroke-linecap="round" opacity="0.58"/>
</svg>