<?xml version="1.0" encoding="UTF-8"?>
<svg xmlns="http://www.w3.org/2000/svg" width="1200" height="1200" viewBox="0 0 1200 1200" role="img" aria-label="Lemon Ice Tea/ชามะนาว">
  <defs>
    <radialGradient id="bgGlow" cx="50%" cy="40%" r="72%">
      <stop offset="0%" stop-color="#fffaf0"/>
      <stop offset="58%" stop-color="#f4eddb"/>
      <stop offset="100%" stop-color="#d8e9d7"/>
    </radialGradient>
    <linearGradient id="emeraldWash" x1="0%" y1="0%" x2="100%" y2="100%">
      <stop offset="0%" stop-color="#0b4a33" stop-opacity="0.14"/>
      <stop offset="100%" stop-color="#f8f3e7" stop-opacity="0.05"/>
    </linearGradient>
    <filter id="softShadow" x="-30%" y="-30%" width="160%" height="170%">
      <feDropShadow dx="0" dy="28" stdDeviation="26" flood-color="#183929" flood-opacity="0.18"/>
    </filter>
  </defs>
  <rect width="1200" height="1200" fill="url(#bgGlow)"/>
  <rect x="78" y="78" width="1044" height="1044" rx="76" fill="url(#emeraldWash)" stroke="#f8f1df" stroke-width="4"/>
  <circle cx="952" cy="234" r="170" fill="#ffffff" opacity="0.33"/>
  <circle cx="236" cy="946" r="210" fill="#0f5b3f" opacity="0.07"/>
  <g transform="translate(72 236) rotate(-25) scale(0.9)" opacity="0.28">
    <path d="M0 0 C56 -70 134 -58 180 -8 C116 0 64 26 0 0Z" fill="#2f7d55"/>
    <path d="M14 -2 C68 -18 116 -20 166 -10" fill="none" stroke="#d9f0df" stroke-width="7" stroke-linecap="round" opacity="0.42"/>
  </g>
  <g transform="translate(1030 920) rotate(150) scale(0.72)" opacity="0.28">
    <path d="M0 0 C56 -70 134 -58 180 -8 C116 0 64 26 0 0Z" fill="#2f7d55"/>
    <path d="M14 -2 C68 -18 116 -20 166 -10" fill="none" stroke="#d9f0df" stroke-width="7" stroke-linecap="round" opacity="0.42"/>
  </g>
  <g transform="translate(945 168) rotate(42) scale(0.48)" opacity="0.32">
    <path d="M0 0 C56 -70 134 -58 180 -8 C116 0 64 26 0 0Z" fill="#155f43"/>
    <path d="M14 -2 C68 -18 116 -20 166 -10" fill="none" stroke="#d9f0df" stroke-width="7" stroke-linecap="round" opacity="0.42"/>
  </g>
  <g filter="url(#softShadow)">
    <ellipse cx="600" cy="850" rx="205" ry="58" fill="#eadfc7"/>
    <path d="M420 410 L780 410 L726 850 Q600 906 474 850 Z" fill="#ffffff" opacity="0.42" stroke="#f8f3e7" stroke-width="16"/>
    <path d="M456 535 L744 535 L708 824 Q600 862 492 824 Z" fill="#c47d28" opacity="0.9"/>
    <ellipse cx="600" cy="535" rx="144" ry="48" fill="#ffe58c" opacity="0.55"/>
    <rect x="502" y="585" width="60.68" height="60.68" rx="16" fill="#fff" opacity="0.38" transform="rotate(-16 532.34 615.34)"/><rect x="612" y="623" width="53.28" height="53.28" rx="16" fill="#fff" opacity="0.38" transform="rotate(13 638.64 649.64)"/><rect x="540" y="710" width="48.1" height="48.1" rx="16" fill="#fff" opacity="0.38" transform="rotate(21 564.05 734.05)"/>
    <path d="M745 385 C825 420 806 500 740 502" fill="none" stroke="#fff" stroke-width="18" opacity="0.46"/>
  </g>
  <g transform="translate(782 512) scale(0.8)">
    <circle cx="0" cy="0" r="62" fill="#ffde56" stroke="#fff7bd" stroke-width="12"/>
    <circle cx="0" cy="0" r="31" fill="none" stroke="#fff7bd" stroke-width="4"/>
    <path d="M0 0 L58 0" stroke="#fff7bd" stroke-width="4"/><path d="M0 0 L41.01219330881976 41.012193308819754" stroke="#fff7bd" stroke-width="4"/><path d="M0 0 L3.5514757175273244e-15 58" stroke="#fff7bd" stroke-width="4"/><path d="M0 0 L-41.012193308819754 41.01219330881976" stroke="#fff7bd" stroke-width="4"/><path d="M0 0 L-58 7.102951435054649e-15" stroke="#fff7bd" stroke-width="4"/><path d="M0 0 L-41.01219330881977 -41.012193308819754" stroke="#fff7bd" stroke-width="4"/><path d="M0 0 L-1.0654427152581972e-14 -58" stroke="#fff7bd" stroke-width="4"/><path d="M0 0 L41.01219330881975 -41.01219330881977" stroke="#fff7bd" stroke-width="4"/>
  </g>
</svg>