<?xml version="1.0" encoding="UTF-8"?>
<svg xmlns="http://www.w3.org/2000/svg" width="1200" height="1200" viewBox="0 0 1200 1200" role="img" aria-label="MACCHIATO/มัคคิอาโต้">
  <defs>
    <radialGradient id="bgGlow" cx="50%" cy="40%" r="72%">
      <stop offset="0%" stop-color="#fffaf0"/>
      <stop offset="58%" stop-color="#f4eddb"/>
      <stop offset="100%" stop-color="#d8e9d7"/>
    </radialGradient>
    <linearGradient id="emeraldWash" x1="0%" y1="0%" x2="100%" y2="100%">
      <stop offset="0%" stop-color="#0b4a33" stop-opacity="0.14"/>
      <stop offset="100%" stop-color="#f8f3e7" stop-opacity="0.05"/>
    </linearGradient>
    <filter id="softShadow" x="-30%" y="-30%" width="160%" height="170%">
      <feDropShadow dx="0" dy="28" stdDeviation="26" flood-color="#183929" flood-opacity="0.18"/>
    </filter>
  </defs>
  <rect width="1200" height="1200" fill="url(#bgGlow)"/>
  <rect x="78" y="78" width="1044" height="1044" rx="76" fill="url(#emeraldWash)" stroke="#f8f1df" stroke-width="4"/>
  <circle cx="952" cy="234" r="170" fill="#ffffff" opacity="0.33"/>
  <circle cx="236" cy="946" r="210" fill="#0f5b3f" opacity="0.07"/>
  <g transform="translate(72 236) rotate(-25) scale(0.9)" opacity="0.28">
    <path d="M0 0 C56 -70 134 -58 180 -8 C116 0 64 26 0 0Z" fill="#2f7d55"/>
    <path d="M14 -2 C68 -18 116 -20 166 -10" fill="none" stroke="#d9f0df" stroke-width="7" stroke-linecap="round" opacity="0.42"/>
  </g>
  <g transform="translate(1030 920) rotate(150) scale(0.72)" opacity="0.28">
    <path d="M0 0 C56 -70 134 -58 180 -8 C116 0 64 26 0 0Z" fill="#2f7d55"/>
    <path d="M14 -2 C68 -18 116 -20 166 -10" fill="none" stroke="#d9f0df" stroke-width="7" stroke-linecap="round" opacity="0.42"/>
  </g>
  <g transform="translate(945 168) rotate(42) scale(0.48)" opacity="0.32">
    <path d="M0 0 C56 -70 134 -58 180 -8 C116 0 64 26 0 0Z" fill="#c68b38"/>
    <path d="M14 -2 C68 -18 116 -20 166 -10" fill="none" stroke="#d9f0df" stroke-width="7" stroke-linecap="round" opacity="0.42"/>
  </g>
  <g filter="url(#softShadow)">
    <ellipse cx="600" cy="850" rx="205" ry="58" fill="#eadfc7"/>
    <path d="M420 400 L780 400 L725 850 Q600 906 475 850 Z" fill="#ffffff" opacity="0.42" stroke="#f8f3e7" stroke-width="16"/>
    <path d="M457 610 L743 610 L709 824 Q600 862 491 824 Z" fill="#7b3c1d" opacity="0.92"/>
    <path d="M444 506 L756 506 L744 612 L457 612 Z" fill="#fff0d8" opacity="0.92"/>
    <path d="M470 468 C520 515 560 492 606 534 C654 579 692 532 737 574" fill="none" stroke="#b56d2e" stroke-width="18" stroke-linecap="round" opacity="0.6"/>
    <ellipse cx="600" cy="505" rx="150" ry="50" fill="#fff7e8" opacity="0.54"/>
  </g>
</svg>